<?xml version="1.0" encoding="UTF-8"?>
<svg version="1.1" xmlns="http://www.w3.org/2000/svg" width="96" height="96">
<path d="M0 0 C3.625 0.375 3.625 0.375 7 1 C7.495 2.98 7.495 2.98 8 5 C8.721875 5.103125 9.44375 5.20625 10.1875 5.3125 C13.39022322 6.0953879 15.42539682 6.92601411 18 9 C18.9375 12 18.9375 12 19 15 C18.34 15.99 17.68 16.98 17 18 C14.1796875 18.29296875 14.1796875 18.29296875 10.875 18.1875 C9.77929688 18.16042969 8.68359375 18.13335938 7.5546875 18.10546875 C6.71164063 18.07066406 5.86859375 18.03585938 5 18 C5.10792821 20.9042893 5.10792821 20.9042893 6 24 C7.65071396 25.02611949 9.31970006 26.02308143 11 27 C14.90069977 32.2712159 15.80889711 36.48904129 15 43 C14.505 43.99 14.505 43.99 14 45 C14.99 45 15.98 45 17 45 C17.495 46.98 17.495 46.98 18 49 C19.65 49 21.3 49 23 49 C23 49.66 23 50.32 23 51 C21.02 51 19.04 51 17 51 C17.061875 51.886875 17.12375 52.77375 17.1875 53.6875 C16.97697059 57.40685284 16.2132352 59.04901974 14 62 C11 64 11 64 7.1875 64.3125 C3.56140013 64.65533126 3.01954228 64.98295248 0.0625 67.5625 C-3.58839767 70.46831651 -5.35808747 70.50510967 -9.8515625 70.37109375 C-12.2035341 69.96484411 -13.92936855 69.16648695 -16 68 C-16.721875 68.61875 -17.44375 69.2375 -18.1875 69.875 C-23.83975515 74.14559278 -29.03767397 74.86896611 -36 74 C-40.79067782 72.41129659 -44.81767162 69.97791047 -48 66 C-48 65.34 -48 64.68 -48 64 C-48.91523437 64.02320312 -49.83046875 64.04640625 -50.7734375 64.0703125 C-51.96195313 64.08835937 -53.15046875 64.10640625 -54.375 64.125 C-55.55835938 64.14820312 -56.74171875 64.17140625 -57.9609375 64.1953125 C-61 64 -61 64 -63 62 C-62.9375 59.625 -62.9375 59.625 -62 57 C-59.4375 54.6875 -59.4375 54.6875 -57 53 C-57.804375 52.34 -58.60875 51.68 -59.4375 51 C-62.5746566 47.3272313 -63.31814046 44.77210697 -63 40 C-61.7509383 36.32220721 -60.97168274 34.54812872 -57.5625 32.625 C-54.73540628 30.83220886 -54.36968313 30.02000184 -53.0625 27.0625 C-51.14473694 22.9060733 -49.21902155 21.02837575 -45 19 C-38.19796954 17.40101523 -38.19796954 17.40101523 -35 19 C-35.65585189 15.39007621 -35.65585189 15.39007621 -37 12 C-35.02 12 -33.04 12 -31 12 C-31 11.34 -31 10.68 -31 10 C-29.35546875 8.74609375 -29.35546875 8.74609375 -27.1875 7.4375 C-26.47980469 7.00308594 -25.77210937 6.56867187 -25.04296875 6.12109375 C-21.99446288 4.4482043 -19.25362916 3.84481126 -15.83984375 3.53515625 C-15.04642578 3.45716797 -14.25300781 3.37917969 -13.43554688 3.29882812 C-11.76667159 3.14094391 -10.09738839 2.98731491 -8.42773438 2.83789062 C-7.23954102 2.71897461 -7.23954102 2.71897461 -6.02734375 2.59765625 C-5.30281006 2.53070557 -4.57827637 2.46375488 -3.83178711 2.39477539 C-1.76001043 2.12152067 -1.76001043 2.12152067 0 0 Z " fill="#C6EBE4" transform="translate(69,9)"/>
<path d="M0 0 C2.72478107 0.25950296 4.28617805 0.87896644 6.625 2.25 C7.285 2.58 7.945 2.91 8.625 3.25 C8.625 14.8 8.625 26.35 8.625 38.25 C-6.90233119 42.48472669 -6.90233119 42.48472669 -13.1875 40.25 C-17.88798324 38.77533859 -22.48685571 39.09344022 -27.375 39.25 C-27.519375 39.889375 -27.66375 40.52875 -27.8125 41.1875 C-28.375 43.25 -28.375 43.25 -29.375 44.25 C-31.37458364 44.29080783 -33.37545254 44.29254356 -35.375 44.25 C-35.375 43.92 -35.375 43.59 -35.375 43.25 C-32.9 42.755 -32.9 42.755 -30.375 42.25 C-30.045 40.93 -29.715 39.61 -29.375 38.25 C-31.355 38.745 -31.355 38.745 -33.375 39.25 C-33.045 37.6 -32.715 35.95 -32.375 34.25 C-33.4578125 34.2809375 -33.4578125 34.2809375 -34.5625 34.3125 C-37.29425138 34.25179441 -39.71756091 33.85741465 -42.375 33.25 C-42.705 34.24 -43.035 35.23 -43.375 36.25 C-46.9375 37.4375 -46.9375 37.4375 -50.375 38.25 C-50.375 39.57 -50.375 40.89 -50.375 42.25 C-47.405 42.58 -44.435 42.91 -41.375 43.25 C-41.375 43.58 -41.375 43.91 -41.375 44.25 C-42.99963842 44.30395478 -44.62478541 44.34277195 -46.25 44.375 C-47.15492187 44.39820313 -48.05984375 44.42140625 -48.9921875 44.4453125 C-51.375 44.25 -51.375 44.25 -53.375 42.25 C-53.23511139 39.03774311 -52.84141973 37.67763026 -50.44921875 35.484375 C-49.26779297 34.74960938 -49.26779297 34.74960938 -48.0625 34 C-47.28261719 33.49984375 -46.50273438 32.9996875 -45.69921875 32.484375 C-43.46118556 31.2957725 -41.89012943 30.5029724 -39.375 30.25 C-36.9 31.24 -36.9 31.24 -34.375 32.25 C-34.375 23.67 -34.375 15.09 -34.375 6.25 C-22.28750249 1.71718843 -17.32145845 2.00682192 -5.375 6.25 C-5.189375 5.321875 -5.189375 5.321875 -5 4.375 C-4.1011941 1.31905995 -3.19505035 0.33632109 0 0 Z " fill="#FCF1AA" transform="translate(59.375,28.75)"/>
<path d="M0 0 C2.72478107 0.25950296 4.28617805 0.87896644 6.625 2.25 C7.285 2.58 7.945 2.91 8.625 3.25 C8.625 14.8 8.625 26.35 8.625 38.25 C-6.90233119 42.48472669 -6.90233119 42.48472669 -13.1875 40.25 C-17.88798324 38.77533859 -22.48685571 39.09344022 -27.375 39.25 C-27.519375 39.889375 -27.66375 40.52875 -27.8125 41.1875 C-28.375 43.25 -28.375 43.25 -29.375 44.25 C-31.37458364 44.29080783 -33.37545254 44.29254356 -35.375 44.25 C-35.375 43.92 -35.375 43.59 -35.375 43.25 C-32.9 42.755 -32.9 42.755 -30.375 42.25 C-30.045 40.93 -29.715 39.61 -29.375 38.25 C-31.355 38.745 -31.355 38.745 -33.375 39.25 C-33.045 37.6 -32.715 35.95 -32.375 34.25 C-33.4578125 34.2809375 -33.4578125 34.2809375 -34.5625 34.3125 C-37.29425138 34.25179441 -39.71756091 33.85741465 -42.375 33.25 C-42.705 34.24 -43.035 35.23 -43.375 36.25 C-46.9375 37.4375 -46.9375 37.4375 -50.375 38.25 C-50.375 39.57 -50.375 40.89 -50.375 42.25 C-47.405 42.58 -44.435 42.91 -41.375 43.25 C-41.375 43.58 -41.375 43.91 -41.375 44.25 C-42.99963842 44.30395478 -44.62478541 44.34277195 -46.25 44.375 C-47.15492187 44.39820313 -48.05984375 44.42140625 -48.9921875 44.4453125 C-51.375 44.25 -51.375 44.25 -53.375 42.25 C-53.23511139 39.03774311 -52.84141973 37.67763026 -50.44921875 35.484375 C-49.26779297 34.74960938 -49.26779297 34.74960938 -48.0625 34 C-47.28261719 33.49984375 -46.50273438 32.9996875 -45.69921875 32.484375 C-43.46118556 31.2957725 -41.89012943 30.5029724 -39.375 30.25 C-36.9 31.24 -36.9 31.24 -34.375 32.25 C-34.375 23.67 -34.375 15.09 -34.375 6.25 C-22.28750249 1.71718843 -17.32145845 2.00682192 -5.375 6.25 C-5.189375 5.321875 -5.189375 5.321875 -5 4.375 C-4.1011941 1.31905995 -3.19505035 0.33632109 0 0 Z M-28.0859375 5.7734375 C-29.2932251 6.18601807 -29.2932251 6.18601807 -30.52490234 6.60693359 C-31.44070068 6.92525146 -31.44070068 6.92525146 -32.375 7.25 C-32.43305933 11.49994263 -32.46861654 15.74978324 -32.5 20 C-32.51675781 21.2065625 -32.53351562 22.413125 -32.55078125 23.65625 C-32.55722656 24.81640625 -32.56367187 25.9765625 -32.5703125 27.171875 C-32.58078613 28.24018555 -32.59125977 29.30849609 -32.60205078 30.40917969 C-32.37432634 33.25842876 -31.95778232 34.88996467 -30.375 37.25 C-27.19694716 38.46513785 -25.17925965 38.21565959 -21.8125 37.625 C-16.95610035 36.86791869 -12.84185982 38.24697054 -8.20703125 39.65625 C-2.2434847 40.90653838 1.83206368 38.42235112 7.625 36.25 C7.625 25.69 7.625 15.13 7.625 4.25 C6.965 4.25 6.305 4.25 5.625 4.25 C5.191875 5.61125 5.191875 5.61125 4.75 7 C3.625 10.25 3.625 10.25 2.5 12.4375 C1.40762547 14.36483327 1.40762547 14.36483327 1.625 17.25 C-1.04071241 15.91714379 -1.15124981 14.58312308 -2.3125 11.875 C-3.91313826 8.88745857 -4.84319508 7.51549148 -7.90234375 5.98828125 C-14.94775658 4.00706091 -21.10167842 3.36902044 -28.0859375 5.7734375 Z " fill="#6F544A" transform="translate(59.375,28.75)"/>
<path d="M0 0 C0.02903577 3.10414702 0.0468107 6.20825909 0.0625 9.3125 C0.07087891 10.19357422 0.07925781 11.07464844 0.08789062 11.98242188 C0.09111328 12.82998047 0.09433594 13.67753906 0.09765625 14.55078125 C0.10289307 15.33106689 0.10812988 16.11135254 0.11352539 16.9152832 C0 19 0 19 -1 22 C-0.835 23.155 -0.67 24.31 -0.5 25.5 C0 29 0 29 -1 32 C-3.74938015 33.52743342 -5.53733121 34.02151948 -8.6875 33.875 C-11 33 -11 33 -12.13232422 31.32519531 C-13.2228038 28.40293096 -13.22587877 26.03963479 -13.1953125 22.921875 C-13.18886719 21.76171875 -13.18242187 20.6015625 -13.17578125 19.40625 C-13.15902344 18.1996875 -13.14226563 16.993125 -13.125 15.75 C-13.11597656 14.52796875 -13.10695313 13.3059375 -13.09765625 12.046875 C-13.07409513 9.03105218 -13.04119706 6.01562508 -13 3 C-11.58603098 2.49242138 -10.16868271 1.99425075 -8.75 1.5 C-7.96109375 1.2215625 -7.1721875 0.943125 -6.359375 0.65625 C-4 0 -4 0 0 0 Z " fill="#F3BB80" transform="translate(40,33)"/>
<path d="M0 0 C0.66 0 1.32 0 2 0 C2 10.56 2 21.12 2 32 C-6 35 -6 35 -10 35 C-10.33 34.34 -10.66 33.68 -11 33 C-12.64363134 32.27840576 -14.31050386 31.60648579 -16 31 C-15.01 30.67 -14.02 30.34 -13 30 C-12.34 30.33 -11.68 30.66 -11 31 C-11 28.36 -11 25.72 -11 23 C-11.99 23 -12.98 23 -14 23 C-13.67 22.34 -13.34 21.68 -13 21 C-12.34 21.33 -11.68 21.66 -11 22 C-11 20.02 -11 18.04 -11 16 C-11.99 15.67 -12.98 15.34 -14 15 C-13.01 15 -12.02 15 -11 15 C-11 12.03 -11 9.06 -11 6 C-10.34 6 -9.68 6 -9 6 C-8.54625 6.969375 -8.0925 7.93875 -7.625 8.9375 C-6.34213779 12.07079582 -6.34213779 12.07079582 -4 13 C-3.87625 12.236875 -3.7525 11.47375 -3.625 10.6875 C-3 8 -3 8 -1 5 C-0.61500109 3.34450469 -0.27206865 1.6777567 0 0 Z " fill="#F7BC80" transform="translate(65,33)"/>
<path d="M0 0 C2.4375 0.3125 2.4375 0.3125 4.4375 2.3125 C4.4375 3.3025 4.4375 4.2925 4.4375 5.3125 C6.0875 5.3125 7.7375 5.3125 9.4375 5.3125 C9.4375 5.9725 9.4375 6.6325 9.4375 7.3125 C10.7575 7.6425 12.0775 7.9725 13.4375 8.3125 C14.0625 10.6875 14.0625 10.6875 14.4375 13.3125 C11.41512907 16.33487093 7.87889254 15.82107873 3.8125 16 C3.03003906 16.04705078 2.24757813 16.09410156 1.44140625 16.14257812 C-3.69704933 16.40248342 -8.4926424 16.23581844 -13.5625 15.3125 C-14.2225 14.6525 -14.8825 13.9925 -15.5625 13.3125 C-15.1875 10.6875 -15.1875 10.6875 -14.5625 8.3125 C-12.9125 8.3125 -11.2625 8.3125 -9.5625 8.3125 C-10.2225 7.9825 -10.8825 7.6525 -11.5625 7.3125 C-11.2325 5.9925 -10.9025 4.6725 -10.5625 3.3125 C-9.799375 3.374375 -9.03625 3.43625 -8.25 3.5 C-5.52729875 3.6053881 -5.52729875 3.6053881 -4.0625 1.8125 C-2.5625 0.3125 -2.5625 0.3125 0 0 Z " fill="#FAF8EC" transform="translate(71.5625,10.6875)"/>
<path d="M0 0 C0.721875 0.144375 1.44375 0.28875 2.1875 0.4375 C3.5796875 0.7159375 3.5796875 0.7159375 5 1 C6.66666667 1.33333333 8.33333333 1.66666667 10 2 C10 3.32 10 4.64 10 6 C10.99 6 11.98 6 13 6 C12.67 7.65 12.34 9.3 12 11 C5.09811029 11.83854735 -1.11422188 12.01593448 -8 11 C-8.33 9.35 -8.66 7.7 -9 6 C-5.91190305 4.23537317 -4.76687864 4 -1 4 C-0.67 2.68 -0.34 1.36 0 0 Z " fill="#F9F7EB" transform="translate(17,61)"/>
<path d="M0 0 C0.33 0 0.66 0 1 0 C1 2.64 1 5.28 1 8 C2.98 8 4.96 8 7 8 C4 10 4 10 1 10 C1 11.65 1 13.3 1 15 C3.64 15 6.28 15 9 15 C10.10272046 18.30816138 10.21537818 20.70111637 9 24 C4.91343412 26.60054192 0.67631878 26.15851928 -4 26 C-4.33 25.34 -4.66 24.68 -5 24 C-3.35 24.33 -1.7 24.66 0 25 C0 22.36 0 19.72 0 17 C-0.99 17 -1.98 17 -3 17 C-2.67 16.34 -2.34 15.68 -2 15 C-1.34 15.33 -0.68 15.66 0 16 C0 14.02 0 12.04 0 10 C-0.99 9.67 -1.98 9.34 -3 9 C-2.01 9 -1.02 9 0 9 C0 6.03 0 3.06 0 0 Z " fill="#D6A372" transform="translate(54,39)"/>
<path d="M0 0 C2 2 2 2 2.1875 4.6875 C1.99033303 8.17078308 1.55102307 11.55610581 1 15 C0.34 14.34 -0.32 13.68 -1 13 C-1.33 13.99 -1.66 14.98 -2 16 C-5.59597603 14.80134132 -6.50413281 13.25286152 -8.2734375 9.984375 C-9.45290758 6.76302661 -8.9043461 4.22980749 -8 1 C-5.23749964 -0.38125018 -3.05268901 -0.19079306 0 0 Z " fill="#B34967" transform="translate(38,44)"/>
<path d="M0 0 C2.33944736 0.28730055 4.6739143 0.61936779 7 1 C7.33 2.32 7.66 3.64 8 5 C9.0828125 5.1546875 9.0828125 5.1546875 10.1875 5.3125 C13.39022322 6.0953879 15.42539682 6.92601411 18 9 C18.9375 12 18.9375 12 19 15 C18.34 15.99 17.68 16.98 17 18 C15.12060547 18.34057617 15.12060547 18.34057617 12.8671875 18.29296875 C12.06152344 18.28330078 11.25585938 18.27363281 10.42578125 18.26367188 C9.58402344 18.23853516 8.74226563 18.21339844 7.875 18.1875 C7.02550781 18.17396484 6.17601563 18.16042969 5.30078125 18.14648438 C3.20025163 18.11108219 1.10004707 18.05727401 -1 18 C-1 17.67 -1 17.34 -1 17 C4.28 16.67 9.56 16.34 15 16 C15.33 14.35 15.66 12.7 16 11 C14.68 10.34 13.36 9.68 12 9 C12 8.34 12 7.68 12 7 C10.35 7 8.7 7 7 7 C6.34 5.68 5.68 4.36 5 3 C2.62570704 2.74930087 2.62570704 2.74930087 0 3 C-0.495 3.495 -0.99 3.99 -1.5 4.5 C-3 6 -3 6 -5.6875 6.1875 C-6.8321875 6.0946875 -6.8321875 6.0946875 -8 6 C-8.33 6.99 -8.66 7.98 -9 9 C-8.01 9.33 -7.02 9.66 -6 10 C-8 11 -8 11 -12 11 C-11.67 12.65 -11.34 14.3 -11 16 C-8.36 16.33 -5.72 16.66 -3 17 C-3 17.33 -3 17.66 -3 18 C-4.45792884 18.05399736 -5.91642712 18.09279177 -7.375 18.125 C-8.59316406 18.15980469 -8.59316406 18.15980469 -9.8359375 18.1953125 C-12 18 -12 18 -14 16 C-14.125 12.875 -14.125 12.875 -14 10 C-13.01 9.67 -12.02 9.34 -11 9 C-10.67 7.35 -10.34 5.7 -10 4 C-9.36191406 3.79503906 -8.72382812 3.59007812 -8.06640625 3.37890625 C-7.24011719 3.10949219 -6.41382813 2.84007812 -5.5625 2.5625 C-4.73878906 2.29566406 -3.91507813 2.02882813 -3.06640625 1.75390625 C-1.03780412 1.17844506 -1.03780412 1.17844506 0 0 Z " fill="#685550" transform="translate(69,9)"/>
<path d="M0 0 C2.36232333 3.3350447 2.03670794 6.08944279 1.42578125 10.02734375 C0.89403086 12.49095793 0.0685802 14.72036224 -1 17 C-4 16 -4 16 -4.9140625 14.328125 C-5.63358034 12.224919 -6.34174953 10.12325915 -7 8 C-7.28875 7.071875 -7.5775 6.14375 -7.875 5.1875 C-8 3 -8 3 -6.875 1.1875 C-4.46186517 -0.34081872 -2.80362763 -0.22732116 0 0 Z " fill="#B7476C" transform="translate(62,29)"/>
<path d="M0 0 C0.66 0 1.32 0 2 0 C2 10.56 2 21.12 2 32 C-6 35 -6 35 -10 35 C-10.495 33.515 -10.495 33.515 -11 32 C-10.37351563 31.80664062 -9.74703125 31.61328125 -9.1015625 31.4140625 C-7.87566406 31.02347656 -7.87566406 31.02347656 -6.625 30.625 C-5.40683594 30.24214844 -5.40683594 30.24214844 -4.1640625 29.8515625 C-1.83540815 29.10145717 -1.83540815 29.10145717 0 27 C0.27861397 24.18288521 0.27861397 24.18288521 0.1953125 20.8984375 C0.18886719 19.68671875 0.18242188 18.475 0.17578125 17.2265625 C0.15902344 15.95554687 0.14226562 14.68453125 0.125 13.375 C0.11146484 11.456875 0.11146484 11.456875 0.09765625 9.5 C0.07402303 6.33314833 0.04107629 3.16666576 0 0 Z " fill="#E8B079" transform="translate(65,33)"/>
<path d="M0 0 C0.33 1.32 0.66 2.64 1 4 C2.65 4 4.3 4 6 4 C6 4.66 6 5.32 6 6 C2.7 6 -0.6 6 -4 6 C-4 6.66 -4 7.32 -4 8 C-4.66 8 -5.32 8 -6 8 C-5.67 6.68 -5.34 5.36 -5 4 C-5.66 4 -6.32 4 -7 4 C-7.33 4.66 -7.66 5.32 -8 6 C-9.32 6 -10.64 6 -12 6 C-12 5.34 -12 4.68 -12 4 C-12.66 4 -13.32 4 -14 4 C-14 3.34 -14 2.68 -14 2 C-12.4176994 1.66179834 -10.83410625 1.32964061 -9.25 1 C-8.36828125 0.814375 -7.4865625 0.62875 -6.578125 0.4375 C-4 0 -4 0 0 0 Z " fill="#DFF4F0" transform="translate(86,54)"/>
<path d="M0 0 C2.7654203 0.1929363 4.32795051 0.78924845 6.6875 2.1875 C6.6875 4.1675 6.6875 6.1475 6.6875 8.1875 C4.11767905 9.13928554 2.71661288 9.19359339 0 8.625 C-2.3125 7.1875 -2.3125 7.1875 -3.1875 4.125 C-3.22875 3.155625 -3.27 2.18625 -3.3125 1.1875 C-2.3125 0.1875 -2.3125 0.1875 0 0 Z " fill="#E1D498" transform="translate(47.3125,46.8125)"/>
<path d="M0 0 C0.66 0 1.32 0 2 0 C2 1.65 2 3.3 2 5 C3.65 5.33 5.3 5.66 7 6 C7 6.33 7 6.66 7 7 C4.20775927 7.08071788 1.41783434 7.14035408 -1.375 7.1875 C-2.1690625 7.21263672 -2.963125 7.23777344 -3.78125 7.26367188 C-5.85586148 7.29004405 -7.93100865 7.15486462 -10 7 C-10.66 6.01 -11.32 5.02 -12 4 C-10.02 4 -8.04 4 -6 4 C-6 3.34 -6 2.68 -6 2 C-4.02 2 -2.04 2 0 2 C0 1.34 0 0.68 0 0 Z " fill="#E1F5F1" transform="translate(44,17)"/>
<path d="M0 0 C2.33944736 0.28730055 4.6739143 0.61936779 7 1 C7 1.66 7 2.32 7 3 C9.97 3.495 9.97 3.495 13 4 C13 5.32 13 6.64 13 8 C11.06213915 7.52229477 9.12472326 7.04278429 7.1875 6.5625 C6.10855469 6.29566406 5.02960937 6.02882813 3.91796875 5.75390625 C1.9259157 5.23922588 -0.04811524 4.65062825 -2 4 C-1 1 -1 1 0 0 Z " fill="#EBDE9E" transform="translate(41,61)"/>
<path d="M0 0 C2.97 0.495 2.97 0.495 6 1 C6.33 2.65 6.66 4.3 7 6 C5.125 6.625 5.125 6.625 3 7 C2.34 6.34 1.68 5.68 1 5 C0.34 5.66 -0.32 6.32 -1 7 C-0.67 4.69 -0.34 2.38 0 0 Z " fill="#A27078" transform="translate(30,45)"/>
<path d="M0 0 C2.4375 0.625 2.4375 0.625 5 2 C5.9375 4.9375 5.9375 4.9375 6 8 C5.01 9.485 5.01 9.485 4 11 C2.12060547 11.34057617 2.12060547 11.34057617 -0.1328125 11.29296875 C-0.93847656 11.28330078 -1.74414062 11.27363281 -2.57421875 11.26367188 C-3.41597656 11.23853516 -4.25773437 11.21339844 -5.125 11.1875 C-5.97449219 11.17396484 -6.82398437 11.16042969 -7.69921875 11.14648438 C-9.79974837 11.11108219 -11.89995293 11.05727401 -14 11 C-14 10.67 -14 10.34 -14 10 C-6.08 9.505 -6.08 9.505 2 9 C2.33 7.35 2.66 5.7 3 4 C2.01 3.34 1.02 2.68 0 2 C0 1.34 0 0.68 0 0 Z " fill="#563C3A" transform="translate(82,16)"/>
<path d="M0 0 C0.33 0.99 0.66 1.98 1 3 C2.65 3 4.3 3 6 3 C6 3.66 6 4.32 6 5 C6.99 5.33 7.98 5.66 9 6 C8.34 6 7.68 6 7 6 C7.33 7.32 7.66 8.64 8 10 C5.525 9.01 5.525 9.01 3 8 C3 7.34 3 6.68 3 6 C2.38125 5.87625 1.7625 5.7525 1.125 5.625 C-1 5 -1 5 -3 3 C-2.01 3 -1.02 3 0 3 C0 2.01 0 1.02 0 0 Z " fill="#D3CCC2" transform="translate(75,13)"/>
<path d="M0 0 C0.33 0 0.66 0 1 0 C1 2.64 1 5.28 1 8 C2.98 8 4.96 8 7 8 C4 10 4 10 1 10 C1 11.65 1 13.3 1 15 C1.66 15 2.32 15 3 15 C3 15.66 3 16.32 3 17 C1.02 17 -0.96 17 -3 17 C-2.67 16.34 -2.34 15.68 -2 15 C-1.34 15.33 -0.68 15.66 0 16 C0 14.02 0 12.04 0 10 C-0.99 9.67 -1.98 9.34 -3 9 C-2.01 9 -1.02 9 0 9 C0 6.03 0 3.06 0 0 Z " fill="#AB825E" transform="translate(54,39)"/>
<path d="M0 0 C0.33 1.32 0.66 2.64 1 4 C2.65 4 4.3 4 6 4 C6 4.66 6 5.32 6 6 C3.69 6 1.38 6 -1 6 C-1.33 4.68 -1.66 3.36 -2 2 C-3.32 1.67 -4.64 1.34 -6 1 C-4 0 -4 0 0 0 Z " fill="#FCFEFE" transform="translate(86,54)"/>
<path d="M0 0 C0.33 0.66 0.66 1.32 1 2 C0.01 2.495 0.01 2.495 -1 3 C-1 4.32 -1 5.64 -1 7 C-1.99 7 -2.98 7 -4 7 C-4.33 5.68 -4.66 4.36 -5 3 C-5.99 3 -6.98 3 -8 3 C-5.53387212 -0.1151089 -3.89156016 -0.31553191 0 0 Z " fill="#A9868C" transform="translate(62,29)"/>
<path d="M0 0 C1.5625 1.6875 1.5625 1.6875 3 4 C2.6875 6.75 2.6875 6.75 2 9 C1.67 8.01 1.34 7.02 1 6 C0.01 6.33 -0.98 6.66 -2 7 C-2 6.34 -2 5.68 -2 5 C-2.66 5 -3.32 5 -4 5 C-3.67 4.34 -3.34 3.68 -3 3 C-2.34 3.33 -1.68 3.66 -1 4 C-0.67 2.68 -0.34 1.36 0 0 Z " fill="#CE9C6D" transform="translate(37,56)"/>
<path d="M0 0 C3.63 0 7.26 0 11 0 C11 0.33 11 0.66 11 1 C10.071875 1.144375 9.14375 1.28875 8.1875 1.4375 C4.99274889 1.92100111 4.99274889 1.92100111 2 3 C1.34 2.01 0.68 1.02 0 0 Z " fill="#FCFEFD" transform="translate(32,21)"/>
</svg>
