<?xml version="1.0" encoding="UTF-8"?>
<svg version="1.1" xmlns="http://www.w3.org/2000/svg" width="96" height="96">
<path d="M0 0 C1.3756311 -0.00574036 1.3756311 -0.00574036 2.77905273 -0.01159668 C4.71566873 -0.01431549 6.65232147 -0.00695646 8.58886719 0.00976562 C11.55226553 0.03117606 14.51323951 0.00996331 17.4765625 -0.015625 C19.35938035 -0.01298172 21.24219669 -0.00785673 23.125 0 C24.01050537 -0.00809692 24.89601074 -0.01619385 25.80834961 -0.02453613 C27.04983765 -0.00562317 27.04983765 -0.00562317 28.31640625 0.01367188 C29.04158447 0.01685425 29.7667627 0.02003662 30.51391602 0.02331543 C33.57315074 0.78183502 34.71036386 2.00032856 36.5625 4.53125 C37.04351807 7.7456665 37.04351807 7.7456665 37.01660156 11.59472656 C37.01718567 12.29756775 37.01776978 13.00040894 37.01837158 13.72454834 C37.01559139 16.04083152 36.98450512 18.35581749 36.953125 20.671875 C36.94566232 22.2804087 36.93996951 23.88895151 36.93597412 25.49749756 C36.92071977 29.72604585 36.88144018 33.95404238 36.8371582 38.18237305 C36.7962009 42.49911027 36.77796216 46.81593687 36.7578125 51.1328125 C36.71494513 59.59923945 36.64459741 68.06511247 36.5625 76.53125 C28.6425 76.86125 20.7225 77.19125 12.5625 77.53125 C12.5625 79.84125 12.5625 82.15125 12.5625 84.53125 C-3.2775 84.53125 -19.1175 84.53125 -35.4375 84.53125 C-35.4375 78.23763753 -35.2741882 75.19922065 -31.4375 70.53125 C-27.4940936 66.86258913 -24.95037375 64.53125 -19.4375 64.53125 C-20.47749224 61.4979393 -21.4971298 59.45934348 -23.5625 56.96875 C-25.4375 54.53125 -25.4375 54.53125 -25.4375 50.53125 C-26.0975 50.53125 -26.7575 50.53125 -27.4375 50.53125 C-28.19573541 34.16600246 -28.19573541 34.16600246 -23.4375 28.53125 C-19.70332228 25.4972306 -18.30059584 24.53125 -13.4375 24.53125 C-13.45844727 23.94633789 -13.47939453 23.36142578 -13.50097656 22.75878906 C-13.58430115 20.09978535 -13.63620897 17.44105645 -13.6875 14.78125 C-13.72101562 13.86085938 -13.75453125 12.94046875 -13.7890625 11.9921875 C-13.80195312 11.10273438 -13.81484375 10.21328125 -13.828125 9.296875 C-13.84907227 8.47993164 -13.87001953 7.66298828 -13.89160156 6.82128906 C-12.41897394 -0.60518789 -6.17268273 -0.05644205 0 0 Z " fill="#90C9F8" transform="translate(47.4375,5.46875)"/>
<path d="M0 0 C3.63 0 7.26 0 11 0 C11 3.3 11 6.6 11 10 C10.34 10.33 9.68 10.66 9 11 C9.928125 12.1446875 9.928125 12.1446875 10.875 13.3125 C14.90002792 18.40297649 15 18.77864953 15 26 C-0.84 26 -16.68 26 -33 26 C-33 19.69161467 -32.82867609 16.68186297 -29 12 C-25.7519516 8.86044591 -22.78378474 6.28378394 -18.25 5.5625 C-14.51184578 7.9507652 -13.46722969 11.94257712 -12 16 C-12.04125 15.21625 -12.0825 14.4325 -12.125 13.625 C-12 11 -12 11 -10 9 C-7.875 9.375 -7.875 9.375 -6 10 C-6 11.98 -6 13.96 -6 16 C-3.54144009 10.73677223 -1.43823491 5.63308675 0 0 Z " fill="#465B65" transform="translate(45,64)"/>
<path d="M0 0 C3.27879877 2.43567909 3.93508472 3.67542358 4.75 7.75 C4.87375 9.35875 4.87375 9.35875 5 11 C5.99 10.67 6.98 10.34 8 10 C7.66769649 13.54457079 6.55862687 15.84665635 4.625 18.75 C2.29087948 22.30802898 0.98470634 25.69170319 -0.2421875 29.74609375 C-1.45874795 33.36442044 -3.2217268 36.6274129 -5 40 C-5.68707555 37.50935112 -6 35.62113708 -6 33 C-7.98 33.495 -7.98 33.495 -10 34 C-10 35.98 -10 37.96 -10 40 C-14.085486 36.69270181 -15.47150786 31.76164046 -16.9375 26.875 C-17.87370373 23.8690654 -17.87370373 23.8690654 -20.125 21.375 C-22 19 -22 19 -22 15 C-22.66 15 -23.32 15 -24 15 C-24 13.35 -24 11.7 -24 10 C-23.01 10.33 -22.02 10.66 -21 11 C-20.82210938 9.906875 -20.64421875 8.81375 -20.4609375 7.6875 C-19 4 -19 4 -15.6640625 2.1875 C-14.32678689 1.76200322 -12.97953748 1.3668539 -11.625 1 C-10.95210937 0.78472656 -10.27921875 0.56945313 -9.5859375 0.34765625 C-6.12251416 -0.69546141 -3.39469987 -1.48568041 0 0 Z " fill="#F5AF49" transform="translate(44,41)"/>
<path d="M0 0 C0.33 0.99 0.66 1.98 1 3 C1.66 2.67 2.32 2.34 3 2 C5.04055005 1.92934383 7.08334257 1.91578024 9.125 1.9375 C10.22070312 1.94652344 11.31640625 1.95554687 12.4453125 1.96484375 C13.70988281 1.98224609 13.70988281 1.98224609 15 2 C15 5.3 15 8.6 15 12 C13.68 12 12.36 12 11 12 C11 13.98 11 15.96 11 18 C12.32 18 13.64 18 15 18 C15 21.3 15 24.6 15 28 C13.02 28 11.04 28 9 28 C9.99 24.535 9.99 24.535 11 21 C9.02 21.99 9.02 21.99 7 23 C6.87625 21.14375 6.87625 21.14375 6.75 19.25 C6.36561177 16.40755019 5.95328383 14.91824671 4.5 12.375 C1.06878854 10.4878337 -0.86203674 11.19480504 -4.5390625 12.21484375 C-5.75722656 12.60349609 -5.75722656 12.60349609 -7 13 C-7.85335937 13.26941406 -8.70671875 13.53882813 -9.5859375 13.81640625 C-11.73434939 14.51785934 -13.87002681 15.24469036 -16 16 C-16.33 18.31 -16.66 20.62 -17 23 C-18.32 22.34 -19.64 21.68 -21 21 C-21.50264727 14.06067519 -21.27570321 9.62592528 -17 4 C-11.83937145 -0.90889057 -6.71365512 -0.4300562 0 0 Z " fill="#424242" transform="translate(41,30)"/>
<path d="M0 0 C3.96 0 7.92 0 12 0 C12 5.94 12 11.88 12 18 C8.04 18 4.08 18 0 18 C0 12.06 0 6.12 0 0 Z " fill="#BF360C" transform="translate(62,64)"/>
<path d="M0 0 C0.495 0.165 0.99 0.33 1.5 0.5 C6.25659235 1.45131847 11.35968313 1.54677229 16 0 C15.5188509 5.77378925 13.81532819 9.95859836 11 15 C10.31292445 12.50935112 10 10.62113708 10 8 C8.68 8.33 7.36 8.66 6 9 C6 10.98 6 12.96 6 15 C2.66475716 12.30004151 1.43648692 8.96744005 0 5 C-0.1875 2.0625 -0.1875 2.0625 0 0 Z " fill="#FE9C10" transform="translate(28,66)"/>
<path d="M0 0 C3.96 0 7.92 0 12 0 C12 3.3 12 6.6 12 10 C8.04 10 4.08 10 0 10 C0 6.7 0 3.4 0 0 Z " fill="#1565C0" transform="translate(62,48)"/>
<path d="M0 0 C3.96 0 7.92 0 12 0 C12 3.3 12 6.6 12 10 C8.04 10 4.08 10 0 10 C0 6.7 0 3.4 0 0 Z " fill="#1565C0" transform="translate(62,32)"/>
<path d="M0 0 C3.96 0 7.92 0 12 0 C12 3.3 12 6.6 12 10 C8.04 10 4.08 10 0 10 C0 6.7 0 3.4 0 0 Z " fill="#1565C0" transform="translate(62,16)"/>
<path d="M0 0 C3.96 0 7.92 0 12 0 C12 3.3 12 6.6 12 10 C8.04 10 4.08 10 0 10 C0 6.7 0 3.4 0 0 Z " fill="#1565C0" transform="translate(44,16)"/>
<path d="M0 0 C1.51400391 0.01740234 1.51400391 0.01740234 3.05859375 0.03515625 C4.07050781 0.04417969 5.08242188 0.05320313 6.125 0.0625 C7.29869141 0.07990234 7.29869141 0.07990234 8.49609375 0.09765625 C8.49609375 3.39765625 8.49609375 6.69765625 8.49609375 10.09765625 C2.65807639 10.09765625 1.24420192 9.07686138 -3.50390625 6.09765625 C-3.54662725 4.4315372 -3.54454457 2.7638274 -3.50390625 1.09765625 C-2.50390625 0.09765625 -2.50390625 0.09765625 0 0 Z " fill="#1665BE" transform="translate(47.50390625,63.90234375)"/>
<path d="M0 0 C1.65322266 0.01740234 1.65322266 0.01740234 3.33984375 0.03515625 C4.99693359 0.04869141 4.99693359 0.04869141 6.6875 0.0625 C7.54214844 0.07410156 8.39679687 0.08570312 9.27734375 0.09765625 C9.27734375 3.39765625 9.27734375 6.69765625 9.27734375 10.09765625 C7.95734375 10.09765625 6.63734375 10.09765625 5.27734375 10.09765625 C4.94734375 11.41765625 4.61734375 12.73765625 4.27734375 14.09765625 C4.00921875 12.83953125 3.74109375 11.58140625 3.46484375 10.28515625 C2.22895684 5.35031203 0.47782296 3.89797572 -3.72265625 1.09765625 C-2.72265625 0.09765625 -2.72265625 0.09765625 0 0 Z " fill="#1A65B9" transform="translate(46.72265625,31.90234375)"/>
<path d="M0 0 C2.125 0.375 2.125 0.375 4 1 C4.05447047 2.41623216 4.09300508 3.83308191 4.125 5.25 C4.14820313 6.03890625 4.17140625 6.8278125 4.1953125 7.640625 C3.9828378 10.20731941 3.28654105 11.7916067 2 14 C1.34 14 0.68 14 0 14 C-1.58177926 9.84782943 -2.40478458 6.45263035 -2 2 C-1.34 1.34 -0.68 0.68 0 0 Z " fill="#D2393A" transform="translate(35,73)"/>
<path d="M0 0 C1.32 0 2.64 0 4 0 C4 3.3 4 6.6 4 10 C2.02 10 0.04 10 -2 10 C-1.34 6.7 -0.68 3.4 0 0 Z " fill="#1565BF" transform="translate(52,48)"/>
<path d="M0 0 C3.3 0 6.6 0 10 0 C10 1.32 10 2.64 10 4 C6.7 4 3.4 4 0 4 C0 2.68 0 1.36 0 0 Z " fill="#64B5F6" transform="translate(74,78)"/>
<path d="M0 0 C2.31 0.66 4.62 1.32 7 2 C6.67 4.97 6.34 7.94 6 11 C3.2574043 8.2574043 2.49792802 7.25588615 1.3125 3.8125 C1.06113281 3.09707031 0.80976563 2.38164063 0.55078125 1.64453125 C0.36902344 1.10183594 0.18726562 0.55914062 0 0 Z " fill="#F2E3E1" transform="translate(28,70)"/>
<path d="M0 0 C0.66 0.33 1.32 0.66 2 1 C0.35 4.3 -1.3 7.6 -3 11 C-3.74955438 8.0017825 -4.41070989 5.03063487 -5 2 C-2.625 0.9375 -2.625 0.9375 0 0 Z " fill="#F5E8E4" transform="translate(42,70)"/>
<path d="M0 0 C1.65 0 3.3 0 5 0 C5 1.32 5 2.64 5 4 C3.68 4 2.36 4 1 4 C0.67 2.68 0.34 1.36 0 0 Z " fill="#63B2F2" transform="translate(57,78)"/>
</svg>
